# xmcd
#
# Track frame offsets:
# 150
# 12612
# 23000
# 34705
# 48339
# 60359
# 71861
# 85711
# 96080
# 109294
#
# Disc length: 1610 seconds
#
#
# Revision: 0
# Processed by: cddbd v1.5.2PL0 Copyright (c) Steve Scherf et al.
# Submitted via: FreeRIP 2.951 
#
DISCID=7b06480a
DTITLE=Cowboy Copass - Best of the Best
DYEAR=2004
DGENRE=Country
TTITLE0=Filipino Baby
TTITLE1=Alabam
TTITLE2=Signed Sealed and Delivered (1948)
TTITLE3=Tennessee Waltz
TTITLE4=Candy Kisses
TTITLE5=Tennessee Moon
TTITLE6=Tis Sweet to be Remembered
TTITLE7=Flat Top
TTITLE8=Signed Sealed and Delivered (1961)
TTITLE9=Hangman's Boogie
EXTD=2004 King Records
EXTT0=
EXTT1=
EXTT2=
EXTT3=
EXTT4=
EXTT5=
EXTT6=
EXTT7=
EXTT8=
EXTT9=
PLAYORDER=
